<svg xmlns="http://www.w3.org/2000/svg" viewBox="0 0 36.94 36.97"><defs><style>.cls-1{fill:#f6f7f3;}</style></defs><g id="Réteg_2" data-name="Réteg 2"><g id="Bg"><path class="cls-1" d="M36.86,20c-.12.81-.19,1.64-.36,2.45A18.46,18.46,0,1,1,15.28.3a19.43,19.43,0,0,1,2-.28c.44,0,.83,0,1.3,0s.9,0,1.31,0a27,27,0,0,1,2.81.47A18.43,18.43,0,0,1,36.64,15.3c.12.68.19,1.36.28,2,0,.41,0,.85,0,1.31S36.9,19.54,36.86,20ZM29.54,30.37a16.19,16.19,0,0,0,4.56-16.5,16.31,16.31,0,0,0-31.2-.25A16.13,16.13,0,0,0,7.38,30.37,11.61,11.61,0,0,1,14,22.91a8,8,0,1,1,9.72-12.77,7.65,7.65,0,0,1,2.69,5.26,8,8,0,0,1-3.57,7.5A11.67,11.67,0,0,1,29.54,30.37ZM18,34.79a16.76,16.76,0,0,0,9.31-2.63.51.51,0,0,0,.26-.64,9.36,9.36,0,0,0-18.27,0,.47.47,0,0,0,.24.59A16,16,0,0,0,18,34.79Zm.44-24.49a5.87,5.87,0,1,0,5.86,5.87A5.86,5.86,0,0,0,18.46,10.3Z"/></g></g></svg>